<svg version="1" xmlns="http://www.w3.org/2000/svg" width="1184" height="1184" viewBox="0 0 888.000000 888.000000"><path d="M70.2 10.7l.3 10.8 3.5.1c9.7.2 30.8 1.5 33 1.9 1.4.3 4.5.7 7 1 2.5.3 5.9.9 7.5 1.2 1.7.4 3.6.8 4.4.9 4.1.8 12.2 2.8 16.1 4.1 2.5.8 5.2 1.6 6.1 1.8.9.2 2.5.8 3.5 1.4 1.1.6 4.4 2.2 7.4 3.5 9.9 4.6 19.7 11.3 26.5 18.1 2 2 9.5 11.3 9.5 11.8 0 .2 1.5 3 3.4 6.2 1.9 3.1 3.8 7 4.1 8.6.4 1.6 1.1 2.9 1.6 2.9s.9.7.9 1.5.7 3.4 1.4 5.7c.8 2.4 1.7 5.4 1.9 6.8.3 1.4 1 5.2 1.6 8.5.6 3.3 1.3 7.8 1.4 10 .2 2.2.5 4.5.9 5 .3.6.2 1.9-.2 3s-.4 3.1-.1 4.5c1 3.5.6 624.8-.3 633.9-.4 4.1-1 8.4-1.2 9.5-.2 1.2-.9 4.7-1.5 7.9-2.1 11.9-7.9 25.7-15.2 36.7-3.2 4.8-14.3 16.2-19.2 19.6-11.1 7.8-34.6 17.3-46.8 18.9-1.5.2-3.1.6-3.6.9-.4.3-3.6.8-7.2 1.2-3.5.3-6.7.8-7 1-1.3.7-22.4 2.2-35.1 2.3l-4.8.1v25.6l210.8-.2c115.9-.1 211.2-.2 211.8-.3 1.3-.1 1.6-23.8.4-24.6-.3-.2-8.3-.7-17.6-1-20.5-.8-29.6-1.5-38.8-3-2.1-.4-5-.8-6.5-1-1.4-.2-2.6-.4-2.6-.5 0-.1-.9-.3-2-.5-10.1-1.4-26.4-6.8-35.9-11.8-7.4-3.9-17.4-12.4-23.1-19.7-2.3-2.8-7.5-13.3-7.5-14.9 0-.6-.4-1.1-.8-1.1s-.9-1.2-1-2.6c-.1-1.5-.6-3.2-1.1-3.8-.7-.9-1.4-3.7-2.6-10.1-.1-.6-.3-1.2-.4-1.5-.1-.3-.4-2.1-.6-4-.3-1.9-.8-5.3-1.1-7.5-.4-2.2-.8-64.1-1-137.5-.2-73.4-.5-134.3-.8-135.2-.2-.9-.2-1.9.1-2.2.7-.6.6-28.3-.1-29.4-.3-.5-.3-1.2 0-1.5.5-.4.8-156.8.3-159.3-.1-.5-.1-1.4 0-1.9.5-2.7.2-28.6-.3-29.3-.3-.5-.3-1.2.1-1.5.5-.6.7-28.7.2-31.3-.1-.5-.1-1.4 0-1.9.5-2.7.2-28.6-.3-29.3-.3-.5-.3-1.2 0-1.5.5-.4.8-156.8.3-159.3-.1-.5-.1-1.4 0-1.9.1-.6.3-6.4.4-13l.2-12 59.5.1c54.2.2 72 .6 79.8 1.8 1.5.2 5.6.8 9.2 1.2 3.6.4 6.7.8 7 .9.3.1 2.8.5 5.5.9 2.8.5 8.8 1.7 13.5 2.8 4.7 1.1 9.5 2.2 10.7 2.4 1.2.2 3.5.9 5 1.5 1.6.6 2.9 1 3 1 .5 0 8.7 2.9 10.8 3.8 2.2 1 5.7 2.4 6.5 2.5 1.1.3 19.7 9.9 22.5 11.7 1.7 1 3.7 2.2 4.5 2.6.8.4 2.4 1.5 3.4 2.5 1.1 1 2.5 1.8 3.1 1.8.6 0 1.7.9 2.5 2s1.8 2 2.3 2c.5 0 1.4.6 2.2 1.2.7.7 3.2 2.8 5.5 4.7 4.8 4 14.6 13.5 20.5 20.1 4.4 4.9 14.1 18.2 13.8 19-.1.3.5 1.2 1.2 2 3.2 3.5 15.1 28.8 17 36 .3.8 1.6 5.3 2.9 10 1.4 4.7 2.7 9.7 3 11.3.2 1.5.7 3.5 1 4.5.3.9.8 3.1 1 4.7.2 1.7.9 6.4 1.6 10.5 1.9 13 2.4 20.9 2.4 43.5 0 17.9-.7 39-1.4 39-.1 0-.3 2.1-.5 4.7-.5 6.8-2.9 21.1-5 30.8-.4 1.4-.8 3.6-1.1 5-.3 1.4-1.4 5.6-2.6 9.5-1.1 3.8-2.1 7.4-2.3 8-.1.5-.6 2.1-1.2 3.5-.5 1.4-2.3 6.1-3.8 10.5-1.6 4.4-3.2 8.2-3.6 8.5-.4.3-1.1 1.9-1.5 3.5-.4 1.7-1 3.2-1.3 3.5-.4.3-2.4 3.8-4.5 7.9-2.1 4.1-4.4 8.1-5.2 8.9-.8.7-1.4 1.8-1.4 2.3 0 .5-.4 1.5-1 2.2-.5.7-3.3 4.3-6.1 8.2-2.9 3.8-6.6 8.5-8.3 10.3-6.4 7-14.5 15.2-15 15.2-.3 0-2.2 1.6-4.3 3.5-3.4 3.2-17.6 13.2-22.8 16.1-2.6 1.6-17 8.7-21.5 10.8-4.8 2.1-20 7.6-22.7 8.2-1.2.2-3.4.9-4.8 1.4-1.4.5-2.5.7-2.5.4 0-.4-.7-.1-1.5.6s-1.5 1-1.5.7c0-.3-1.5-.1-3.2.4-1.8.5-4.4 1.1-5.8 1.4-1.4.2-4.9.9-7.9 1.5-2.9.5-5.7.7-6.2.4-.5-.3-.9-.1-.9.3 0 .5-.8.9-1.7.9-1 0-4 .3-6.8.7-7.7 1-20.4 2-26.2 2.1-2.9.1-5.3.5-5.3.9 0 .5-.5.5-1 .2-.6-.4-10.7-.8-22.4-1l-21.2-.4.1 12.9c0 7.1.4 13.2.8 13.6.4.4 2.1.8 3.9 1 1.8.2 5.1.5 7.3.8 10.9 1.4 13.6 1.6 20.5 2.1 4.1.3 10.2.7 13.5 1 27.4 2.5 74.4 2 98.5-1 1.9-.2 5.8-.7 8.5-1 7.1-.8 10.6-1.3 13.5-2 1.4-.3 4.1-.8 6-1 1.9-.3 4.6-.7 6-1 1.4-.4 3.9-.9 5.5-1.2 4-.7 5.9-1.1 6.5-1.3.3-.1 1-.3 1.5-.5.6-.1 1.2-.3 1.5-.4.3-.2 1.4-.4 2.5-.6 8.3-1.2 40-11.4 50.3-16.1 2.9-1.3 5.9-2.4 6.7-2.4.8 0 1.5-.5 1.5-1 0-.6.3-.9.8-.8 1 .3 22.6-10.4 23-11.4.2-.4.8-.8 1.3-.8.8 0 18.7-11.1 21.4-13.3.6-.4 3.4-2.5 6.4-4.7 14.3-10.4 32.1-28.3 43.5-43.5 10.3-13.7 22.2-34.5 27.4-48 1-2.8 2.3-5.9 2.7-7 .5-1.1.9-2.2 1-2.5 0-.3 1.6-5 3.3-10.5 1.8-5.5 3.5-11.6 3.8-13.5.3-1.9 1.1-4.1 1.6-4.8.6-.6.8-1.2.5-1.2-.3 0-.1-1.7.4-3.8 1.9-8.5 3.9-22.5 4.4-30.2.2-2.5.4-4.5.5-4.5.8 0 1.2-39.2.5-48-.7-8-1.4-13.7-2.1-17.5-.4-1.9-.8-4.4-.9-5.5-1-7-3.9-19.2-5.5-23.5-.6-1.4-1.1-3.4-1.3-4.5-.4-2-.7-2.9-3-9-.7-1.7-1.2-3.2-1.2-3.5-.2-2-9-22.1-11.5-26-.5-.8-2.1-3.8-3.6-6.5-3-5.7-14.2-22.7-17.6-26.7-1.3-1.5-3.4-4.2-4.8-6-3.8-5-25.8-26.7-32.5-32.1-8.1-6.4-7.4-5.8-13-9.7-2.7-1.9-5.1-3.8-5.3-4.3-.2-.4-.9-.7-1.7-.7-.7 0-1.8-.7-2.5-1.6-.8-.8-2.7-2.2-4.4-3-4.2-1.9-11-5.8-11.6-6.5-.9-1.1-23.5-11.8-31.5-15-6.4-2.5-29.2-10.5-31.5-11-.3-.1-.9-.3-1.5-.4-.5-.2-3.2-.8-6-1.5-2.7-.7-6.1-1.6-7.5-2-1.4-.5-4.2-1.2-6.4-1.5-2.1-.3-4.1-.7-4.5-.9-.3-.2-2.2-.7-4.1-1-1.9-.3-4.4-.7-5.5-.9-1.1-.3-3.8-.8-6-1.2-2.2-.4-5.1-1-6.5-1.3C577.6 1 462.5.6 323.2.4L69.9 0l.3 10.7z"/></svg>